<?xml version="1.0" encoding="UTF-8" standalone="no"?>
<!DOCTYPE svg PUBLIC "-//W3C//DTD SVG 1.1//EN" "http://www.w3.org/Graphics/SVG/1.1/DTD/svg11.dtd">
<svg version="1.1" xmlns="http://www.w3.org/2000/svg" xmlns:xlink="http://www.w3.org/1999/xlink"  >
<rect x="0.0000" y="0.0000" width="283.4646" height="170.0787" style=""/>
<defs>
<marker id="endMarker1"  markerUnits="strokeWidth" orient="auto" markerWidth="8" markerHeight="6"
 viewBox="0 0 10 10" refX="1" refY="5">
<polyline points="0,0 10,5 0,10 1,5" fill="solid" />
</marker>
</defs>
<line x1="14.1732"  y1="155.9055" x2="14.1732"  y2="14.1732"
style="marker-end: url(#endMarker1); "/>
<defs>
<marker id="endMarker2"  markerUnits="strokeWidth" orient="auto" markerWidth="8" markerHeight="6"
 viewBox="0 0 10 10" refX="1" refY="5">
<polyline points="0,0 10,5 0,10 1,5" fill="solid" />
</marker>
</defs>
<line x1="14.1732"  y1="155.9055" x2="269.2914"  y2="155.9055"
style="stroke-width: 0.0000; stroke: #000000; stroke-dasharray: none; fill: #00b8ff; marker-end: url(#endMarker2); "/>
<line x1="70.8661"  y1="28.3465" x2="70.8661"  y2="155.9055"
style="stroke-dasharray: 1.4173, 1.4173, 1.4173, 1.4173; "/>
<line x1="127.5591"  y1="28.3465" x2="127.5591"  y2="155.9055"
style="stroke-dasharray: 1.4173, 1.4173, 1.4173, 1.4173; "/>
<line x1="184.2520"  y1="28.3465" x2="184.2520"  y2="155.9055"
style="stroke-dasharray: 1.4173, 1.4173, 1.4173, 1.4173; "/>
<path d=" 
M32.4283,56.5228
C37.5024,55.7008 42.6614,56.1827 47.7921,56.0976
C52.0441,56.0409 56.4094,56.2110 60.6898,56.0976
C65.1118,55.9843 69.6472,56.6929 73.9843,55.2756
C78.7465,53.7165 82.9417,50.9102 87.2787,48.2173
C91.6441,45.4961 96.1512,43.0866 100.9984,41.1591
C105.5055,39.3732 109.8142,36.6236 114.7181,36.1701
C119.2535,35.7449 123.8173,35.2063 128.4378,35.3197
C133.1717,35.4331 137.5654,37.5591 142.1291,38.6646
C148.0535,40.1102 153.6661,42.2362 159.5906,43.6535
C165.7701,45.1559 168.7181,51.4488 173.3102,55.2756
C177.9024,59.1024 181.1055,64.3748 184.9323,68.9953
C188.6457,73.4457 191.4520,78.6047 194.5134,83.5370
C197.6315,88.5260 199.7575,94.2803 204.0661,98.5039
C208.1764,102.5291 209.3953,108.3118 213.6189,112.2236
C218.3244,116.5606 221.4425,122.1165 226.0913,126.7654
C230.4567,131.1307 234.4252,135.9780 239.3858,139.6346
C244.4882,143.3764 251.1496,143.4614 256.8472,145.8709
L265.1528,146.6929
L269.7165,146.6929
L271.3890,146.6929" 
style="stroke-dasharray: none; fill: none; "/>
<path d=" 
M54.8787,56.9480
C62.0504,57.2882 69.3071,54.6803 76.4787,56.0976
C80.8724,56.9764 85.3512,57.6850 89.7732,58.5921
C94.1669,59.4709 98.7591,59.7543 103.0677,61.0866
C108.5386,62.7874 113.8110,65.1402 119.2819,66.9260
C124.8661,68.7402 129.8268,71.9433 134.6457,75.2315
C139.5213,78.5480 142.4976,83.4236 146.2961,87.7039
C150.3780,92.3244 154.7150,96.7748 158.3433,101.8205
C161.4331,106.1291 165.0614,110.0693 167.8961,114.7181
C170.9008,119.6220 173.9906,124.2425 177.8740,128.8346
C181.6724,133.3134 186.1228,135.9213 190.7717,138.8126
C195.2504,141.5906 200.6079,142.8661 206.1354,143.3764
C211.3512,143.8583 216.4252,145.5591 221.5276,147.1181
C226.0063,148.5071 230.9102,147.4016 235.6441,147.5433
L240.2079,148.3654
L244.3748,148.3654
L246.0472,148.7906" 
style="stroke-dasharray: 14.1732, 14.1732; fill: none; "/>
<text x="198.4252" y="85.0394">
<tspan font-family="Times New Roman;Times" font-weight="normal" font-size="9.9780" fill="#000000" >
Geburtenrate</tspan>
</text>
<text x="99.2126" y="99.2126">
<tspan font-family="Times New Roman;Times" font-weight="normal" font-size="9.9780" fill="#000000" >
   Sterblichkeit</tspan>
</text>
<text x="70.8661" y="155.9055">
<tspan font-family="Times New Roman;Times" font-weight="normal" font-size="9.9780" fill="#000000" >
Zeitraum a.)</tspan>
</text>
<text x="127.5591" y="155.9055">
<tspan font-family="Times New Roman;Times" font-weight="normal" font-size="9.9780" fill="#000000" >
Zeitraum b.)</tspan>
</text>
<text x="56.6929" y="14.1732">
<tspan font-family="Times New Roman;Times" font-weight="normal" font-size="9.9780" fill="#000000" >
Zeitlicher Abriß</tspan>
</text>
</svg>

